<?xml version="1.0" encoding="UTF-8" standalone="no"?>
<!DOCTYPE svg PUBLIC "-//W3C//DTD SVG 1.1//EN" "http://www.w3.org/Graphics/SVG/1.1/DTD/svg11.dtd">
<svg width="100%" height="100%" viewBox="0 0 596 588" version="1.1" xmlns="http://www.w3.org/2000/svg" xmlns:xlink="http://www.w3.org/1999/xlink" xml:space="preserve" xmlns:serif="http://www.serif.com/" style="fill-rule:evenodd;clip-rule:evenodd;stroke-miterlimit:10;">
    <g id="Lager-1" serif:id="Lager 1">
        <g transform="matrix(0,-1,-1,0,296.175,36.5367)">
            <path d="M-257.889,-257.889C-400.317,-257.889 -515.778,-142.428 -515.778,0C-515.778,142.427 -400.317,257.889 -257.889,257.889C-115.461,257.889 0,142.427 0,0C0,-142.428 -115.461,-257.889 -257.889,-257.889" style="fill:rgb(253,253,253);fill-rule:nonzero;"/>
        </g>
        <g transform="matrix(1,0,0,1,296.37,575.86)">
            <path d="M0,-563.421C-155.584,-563.421 -281.71,-437.295 -281.71,-281.711C-281.71,-126.126 -155.584,0 0,0C155.584,0 281.71,-126.126 281.71,-281.711C281.71,-437.295 155.584,-563.421 0,-563.421M0,-537.634C34.561,-537.634 68.074,-530.871 99.609,-517.533C130.081,-504.645 157.453,-486.188 180.965,-462.676C204.477,-439.164 222.934,-411.792 235.823,-381.32C249.161,-349.785 255.924,-316.271 255.924,-281.711C255.924,-247.15 249.161,-213.636 235.823,-182.102C222.934,-151.629 204.477,-124.257 180.965,-100.745C157.453,-77.233 130.081,-58.777 99.609,-45.888C68.074,-32.55 34.561,-25.787 0,-25.787C-34.561,-25.787 -68.074,-32.55 -99.609,-45.888C-130.081,-58.777 -157.453,-77.233 -180.965,-100.745C-204.477,-124.257 -222.934,-151.629 -235.823,-182.102C-249.161,-213.636 -255.924,-247.15 -255.924,-281.711C-255.924,-316.271 -249.161,-349.785 -235.823,-381.32C-222.934,-411.792 -204.477,-439.164 -180.965,-462.676C-157.453,-486.188 -130.081,-504.645 -99.609,-517.533C-68.074,-530.871 -34.561,-537.634 0,-537.634" style="fill:rgb(85,222,17);fill-rule:nonzero;"/>
        </g>
        <g transform="matrix(0,-1,-1,0,296.175,86.0152)">
            <path d="M-208.41,-208.41C-323.512,-208.41 -416.82,-115.102 -416.82,0C-416.82,115.102 -323.512,208.41 -208.41,208.41C-93.308,208.41 0,115.102 0,0C0,-115.102 -93.308,-208.41 -208.41,-208.41" style="fill:rgb(85,222,17);fill-rule:nonzero;"/>
        </g>
        <g transform="matrix(0,-1,-1,0,296.175,104.989)">
            <path d="M-189.437,-189.437C-294.059,-189.437 -378.874,-104.622 -378.874,0.001C-378.874,104.624 -294.059,189.437 -189.437,189.437C-84.814,189.437 0.001,104.624 0.001,0.001C0.001,-104.622 -84.814,-189.437 -189.437,-189.437" style="fill:rgb(185,250,155);fill-rule:nonzero;"/>
        </g>
        <g transform="matrix(0,-1,-1,0,296.175,123.667)">
            <path d="M-170.759,-170.759C-265.066,-170.759 -341.517,-94.307 -341.517,-0C-341.517,94.307 -265.066,170.759 -170.759,170.759C-76.452,170.759 -0,94.307 -0,-0C-0,-94.307 -76.452,-170.759 -170.759,-170.759" style="fill:rgb(84,222,17);fill-rule:nonzero;"/>
        </g>
        <g transform="matrix(0,-1,-1,0,296.175,139.954)">
            <path d="M-154.472,-154.472C-239.784,-154.472 -308.943,-85.313 -308.943,-0C-308.943,85.313 -239.784,154.472 -154.472,154.472C-69.16,154.472 -0,85.313 -0,-0C-0,-85.313 -69.16,-154.472 -154.472,-154.472" style="fill:rgb(189,249,155);fill-rule:nonzero;"/>
        </g>
        <g transform="matrix(0,-1,-1,0,296.175,156.428)">
            <path d="M-137.997,-137.997C-214.211,-137.997 -275.994,-76.214 -275.994,0C-275.994,76.214 -214.211,137.997 -137.997,137.997C-61.783,137.997 0,76.214 0,0C0,-76.214 -61.783,-137.997 -137.997,-137.997" style="fill:rgb(84,222,15);fill-rule:nonzero;"/>
        </g>
        <g transform="matrix(0,-1,-1,0,296.175,169.75)">
            <path d="M-124.675,-124.675C-193.531,-124.675 -249.35,-68.856 -249.35,-0C-249.35,68.856 -193.531,124.675 -124.675,124.675C-55.819,124.675 -0,68.856 -0,-0C-0,-68.856 -55.819,-124.675 -124.675,-124.675" style="fill:rgb(187,250,155);fill-rule:nonzero;"/>
        </g>
        <g transform="matrix(0,-1,-1,0,295.558,183.207)">
            <path d="M-110.602,-110.602C-171.686,-110.602 -221.204,-61.084 -221.204,0C-221.204,61.084 -171.686,110.602 -110.602,110.602C-49.518,110.602 0,61.084 0,0C0,-61.084 -49.518,-110.602 -110.602,-110.602" style="fill:rgb(51,0,153);fill-rule:nonzero;"/>
        </g>
        <g transform="matrix(1,0,0,1,232.901,341.605)">
            <path d="M0,-30.929C0,-30.929 -22.559,-39.273 -27.997,-48.262C-27.997,-48.262 -23.988,-42.625 -25.638,-40.645C-25.638,-40.645 -33.231,-43.203 -35.211,-52.116C-35.211,-52.116 -36.202,-58.222 -35.211,-60.698C-35.211,-60.698 -36.284,-52.363 -36.779,-51.29C-37.274,-50.217 -41.117,-51.691 -39.277,-63.375C-39.277,-63.375 -38.429,-67.473 -35.356,-71.037C-35.356,-71.037 -38.412,-65.384 -39.772,-66.859C-41.132,-68.333 -34.496,-78.41 -34.496,-78.41C-34.496,-78.41 -29.569,-85.727 -19.978,-87.997C-19.978,-87.997 -5.127,-93.931 17.044,-84.008C26.592,-79.986 36.14,-75.963 45.687,-71.941C46.171,-72.525 47.208,-73.62 48.903,-74.331C50.795,-75.125 52.477,-75.01 53.235,-74.911C53.437,-76.714 53.614,-78.573 53.76,-80.484C53.972,-83.26 54.103,-85.938 54.17,-88.51C55.935,-88.585 58.3,-88.557 61.05,-88.15C63.206,-87.831 67.28,-87.194 71.873,-84.724C73.504,-83.847 75.532,-82.563 77.615,-80.712C79.66,-78.897 81.155,-77.072 82.212,-75.578C82.94,-74.811 84.783,-72.66 85.174,-69.369C85.399,-67.469 85.056,-65.905 84.759,-64.95C84.518,-62.769 83.668,-59.882 82.51,-56.476C81.049,-52.182 78.916,-47.77 76.228,-47.302C76.228,-47.302 73.189,-46.017 75.293,-54.081C75.293,-54.081 65.242,-34.33 33.804,-28.136L38.785,-18.189C38.785,-18.189 47.936,-18.377 61.171,-0.697C61.171,-0.697 81.234,23.998 82.569,59.824C82.569,59.824 79.893,63.002 78.361,63.002C68.472,55.778 58.583,48.553 48.695,41.329C47.434,35.722 45.827,29.708 43.768,23.384C40.761,14.147 37.344,5.948 33.928,-1.166C32.041,-5.588 30.148,-9.18 28.616,-11.854C26.506,-15.541 24.611,-18.309 23.167,-20.409C21.301,-23.123 19.628,-25.362 18.34,-27.028C16.144,-27.924 14.224,-28.502 12.745,-28.881C11.177,-29.284 9.955,-29.598 8.24,-29.755C6.147,-29.946 4.85,-29.936 4.85,-29.936C3.625,-29.927 2.914,-29.839 1.892,-30.103C1.047,-30.321 0.404,-30.673 0,-30.929Z" style="fill:white;fill-rule:nonzero;stroke:black;stroke-width:1.55px;"/>
        </g>
        <g transform="matrix(1,0,0,1,288.326,327.528)">
            <path d="M0,66.789C0.134,67.271 0.262,67.777 0.381,68.306C0.529,68.964 0.65,69.597 0.748,70.2C0.85,70.865 0.945,71.885 0.805,73.114C0.681,74.202 0.597,74.944 0.169,75.455C-0.705,76.499 -2.888,76.426 -5.202,75.471C-6.438,74.965 -7.91,74.472 -9.599,74.109C-12.715,73.44 -15.446,73.453 -17.475,73.636C-17.449,72.942 -17.423,72.248 -17.396,71.555C-23.588,72.799 -30.145,74.352 -36.997,76.294C-41.562,77.587 -45.917,78.956 -50.056,80.368C-51.518,80.792 -52.98,81.217 -54.441,81.641C-56.013,82.13 -58.28,82.649 -61.039,82.67C-63.969,82.692 -66.365,82.145 -67.986,81.641C-69.293,80.233 -72.594,78.22 -72.47,74.773C-72.153,65.971 -71.836,57.169 -71.519,48.367C-71.334,40.679 -70.126,34.38 -68.892,29.72C-68.304,27.499 -67.058,24.097 -64.568,17.291C-60.13,5.163 -58.768,2.774 -56.901,0.527C-53.842,-3.157 -50.389,-5.303 -48.119,-6.488C-49.993,-9.591 -51.867,-12.694 -53.741,-15.797C-52.227,-15.892 -50.558,-15.903 -48.762,-15.771C-43.97,-15.419 -40.003,-14.175 -37.085,-12.951C-32.725,-7.241 -28.236,-0.575 -24.014,7.097C-14.082,25.145 -9.222,42.227 -6.73,55.406C-6.686,55.848 -6.653,56.314 -6.635,56.802C-6.607,57.559 -6.618,58.269 -6.655,58.925C-5.64,59.441 -4.331,60.267 -3.082,61.571C-3.082,61.571 -0.795,63.924 0,66.789" style="fill:rgb(148,143,145);fill-rule:nonzero;"/>
        </g>
        <g transform="matrix(1,0,0,1,288.326,327.528)">
            <path d="M0,66.789C0.134,67.271 0.262,67.777 0.381,68.306C0.529,68.964 0.65,69.597 0.748,70.2C0.85,70.865 0.945,71.885 0.805,73.114C0.681,74.202 0.597,74.944 0.169,75.455C-0.705,76.499 -2.888,76.426 -5.202,75.471C-6.438,74.965 -7.91,74.472 -9.599,74.109C-12.715,73.44 -15.446,73.453 -17.475,73.636C-17.449,72.942 -17.423,72.248 -17.396,71.555C-23.588,72.799 -30.145,74.352 -36.997,76.294C-41.562,77.587 -45.917,78.956 -50.056,80.368C-51.518,80.792 -52.98,81.217 -54.441,81.641C-56.013,82.13 -58.28,82.649 -61.039,82.67C-63.969,82.692 -66.365,82.145 -67.986,81.641C-69.293,80.233 -72.594,78.22 -72.47,74.773C-72.153,65.971 -71.836,57.169 -71.519,48.367C-71.334,40.679 -70.126,34.38 -68.892,29.72C-68.304,27.499 -67.058,24.097 -64.568,17.291C-60.13,5.163 -58.768,2.774 -56.901,0.527C-53.842,-3.157 -50.389,-5.303 -48.119,-6.488C-49.993,-9.591 -51.867,-12.694 -53.741,-15.797C-52.227,-15.892 -50.558,-15.903 -48.762,-15.771C-43.97,-15.419 -40.003,-14.175 -37.085,-12.951C-32.725,-7.241 -28.236,-0.575 -24.014,7.097C-14.082,25.145 -9.222,42.227 -6.73,55.406C-6.686,55.848 -6.653,56.314 -6.635,56.802C-6.607,57.559 -6.618,58.269 -6.655,58.925C-5.64,59.441 -4.331,60.267 -3.082,61.571C-3.082,61.571 -0.795,63.924 0,66.789Z" style="fill:none;fill-rule:nonzero;stroke:black;stroke-width:1.55px;"/>
        </g>
        <g transform="matrix(1,0,0,1,292.822,386.896)">
            <path d="M0,17.744C-0.619,17.71 -1.43,17.602 -2.338,17.307C-3.073,17.068 -3.678,16.769 -4.144,16.496C-3.739,14.414 -3.753,12.69 -3.835,11.537C-3.953,9.861 -4.196,6.428 -6.415,3.625C-7.169,2.671 -8.144,1.801 -8.388,1.585C-9.369,0.715 -10.323,0.054 -11.151,-0.443C-11.582,-1.605 -11.272,-2.828 -10.451,-3.441C-9.994,-3.782 -9.341,-3.946 -8.734,-3.834C-8.277,-3.75 -7.967,-3.531 -7.562,-3.213C-6.371,-2.277 -5.583,-1.657 -4.539,-0.387C-3.878,0.418 -3.788,0.662 -3.341,0.866C-2.559,1.222 -1.703,0.986 -1.176,0.778C-0.35,0.701 0.733,0.68 1.977,0.869C2.597,0.962 3.965,1.22 5.323,1.847C6.054,2.184 6.526,2.511 8.82,4.444C10.837,6.142 11.845,6.992 12.792,7.883C14.14,9.152 14.837,9.93 16.232,11.487C16.686,11.993 17.331,12.728 17.87,13.862C18.145,14.44 18.31,14.949 18.41,15.308C18.514,16.062 18.334,16.481 18.14,16.725C17.571,17.441 16.387,17.271 13.451,17.044C12.055,16.936 10.91,16.865 10.15,16.822C9.719,17.421 9.261,18.03 8.776,18.647C7.95,19.698 7.125,20.667 6.316,21.56C6.085,21.62 5.711,21.69 5.267,21.637C3.992,21.484 3.377,20.46 1.619,18.977C1.256,18.671 0.709,18.232 0,17.744Z" style="fill:rgb(254,254,254);fill-rule:nonzero;stroke:black;stroke-width:1.03px;"/>
        </g>
        <g transform="matrix(0.512091,0.858931,0.858931,-0.512091,295.552,335.978)">
            <path d="M-7.537,-13.755C1.711,-7.583 14.677,-7.583 23.924,-13.755" style="fill:none;fill-rule:nonzero;stroke:black;stroke-width:1.03px;stroke-linecap:round;"/>
        </g>
        <g transform="matrix(-0.137714,0.990472,0.990472,0.137714,259.879,372.525)">
            <path d="M-15.161,-12.837C-6.493,-14.41 2.458,-14.411 11.126,-12.837" style="fill:none;fill-rule:nonzero;stroke:black;stroke-width:1.03px;stroke-linecap:round;"/>
        </g>
        <g transform="matrix(0.991587,0.129438,0.129438,-0.991587,241.747,379.632)">
            <path d="M0.003,-2.644C13.192,1.817 27.846,1.816 41.034,-2.644" style="fill:none;fill-rule:nonzero;stroke:black;stroke-width:1.03px;stroke-linecap:round;"/>
        </g>
        <g transform="matrix(1,0,0,1,293.53,396.619)">
            <path d="M0,-1.771C-0.528,-3.265 -1.28,-4.752 -1.955,-6.17C-2.589,-7.502 -3.349,-8.743 -4.386,-9.838C-5.072,-10.563 -5.657,-9.608 -4.972,-8.884C-4.045,-7.904 -3.349,-6.723 -2.781,-5.531C-2.122,-4.149 -1.366,-2.708 -0.889,-1.237C0.009,1.53 -0.748,4.806 -0.966,7.659C-1.042,8.652 -0.011,8.792 0.065,7.803C0.299,4.729 1.046,1.19 0,-1.771" style="fill-rule:nonzero;"/>
        </g>
        <g transform="matrix(-0.937664,-0.347543,-0.347543,0.937664,210.201,285.567)">
            <path d="M-53.083,9.521C-53.083,9.521 -18.653,21.648 1.708,9.521" style="fill:none;fill-rule:nonzero;stroke:black;stroke-width:1.55px;stroke-linecap:round;stroke-linejoin:round;"/>
        </g>
        <g transform="matrix(1,0,0,1,255.34,320.552)">
            <path d="M0,6.498C-1.605,3.924 -4.124,1.933 -7,0.967C-9.875,0 -13.085,0.065 -15.919,1.146" style="fill:none;fill-rule:nonzero;stroke:black;stroke-width:1.03px;"/>
        </g>
        <g transform="matrix(1,0,0,1,278.589,51.4065)">
            <path d="M0,218.258C-11.557,213.44 -23.114,208.623 -34.671,203.805C-34.671,203.805 -48.399,197.329 -65.665,202.201C-65.665,202.201 -64.216,173.553 -53.066,160.279C-53.422,159.044 -53.76,157.73 -54.065,156.343C-54.522,154.265 -54.845,152.299 -55.07,150.474C-55.656,145.884 -55.917,140.49 -55.386,134.502C-53.896,117.697 -46.951,105.127 -42.221,98.108L-20.263,59.33C-20.263,59.33 1.695,18.217 4.498,4.202C4.498,4.202 9.702,0 10.199,9.94C10.199,9.94 14.525,39.249 8.19,66.698C8.19,66.698 2.301,100.736 -10.808,117.033L-35.745,153.937C-35.745,153.937 -29.36,145.598 -24.186,144.628C-24.186,144.628 -19.159,127.455 -10.151,122.308C-10.151,122.308 20.55,95.835 25.145,91.607C25.145,91.607 57.317,61.09 63.016,48.038C63.016,48.038 68.83,38.228 72.552,38.357C72.552,38.357 76.786,36.56 74.22,52.343C74.22,52.343 62.646,94.818 57.517,99.459C57.517,99.459 40.907,127.06 25.274,135.854C25.274,135.854 -14.693,157.939 -16.966,162.628C-14.967,163.713 -12.811,165.007 -10.571,166.547C-8.124,168.229 -5.984,169.924 -4.137,171.53C-2.817,172.678 0.351,175.819 2.882,179.956C6.989,186.667 7.533,193.156 8.068,199.52C8.393,203.394 8.509,208.818 7.548,215.287C6.746,215.242 5.612,215.276 4.324,215.646C2.114,216.283 0.679,217.56 0,218.258Z" style="fill:rgb(148,143,145);fill-rule:nonzero;stroke:black;stroke-width:1.55px;stroke-linecap:round;"/>
        </g>
        <g transform="matrix(1,0,0,1,287.242,273.494)">
            <path d="M0,-6.356C-0.668,-6.62 -1.935,-7.007 -3.495,-6.795C-6.428,-6.396 -8.067,-4.193 -8.385,-3.746C-7.958,-3.088 -7.563,-2.584 -7.286,-2.252C-6.234,-0.99 -5.245,0.165 -3.66,0.522C-3.28,0.608 -3.09,0.651 -2.86,0.618C-0.628,0.299 -0.034,-5.969 0,-6.356Z" style="fill:rgb(251,208,202);fill-rule:nonzero;stroke:black;stroke-width:1.03px;"/>
        </g>
        <g transform="matrix(1,0,0,1,273.67,277.471)">
            <path d="M0,-3.841C-1.328,-2.605 -1.618,-0.401 -0.656,1.136C-0.019,2.154 1.054,2.831 2.177,3.254C3.77,3.854 5.566,3.999 7.184,3.47C8.803,2.94 10.214,1.693 10.764,0.081C12.341,1.18 14.427,1.513 16.268,0.958C18.108,0.403 19.663,-1.028 20.369,-2.816C20.705,-3.665 20.85,-4.639 20.504,-5.483C19.919,-6.909 18.226,-7.458 16.734,-7.84" style="fill:none;fill-rule:nonzero;stroke:black;stroke-width:1.03px;stroke-linecap:round;"/>
        </g>
        <g transform="matrix(1,0,0,1,290.681,300.296)">
            <path d="M0,-22.032C-0.57,-17.03 -1.171,-11.92 -3.356,-7.385C-4.362,-5.295 -5.731,-3.324 -7.624,-1.984C-9.517,-0.643 -11.988,0 -14.216,-0.646C-15.853,-1.121 -17.227,-2.229 -18.475,-3.391C-21.583,-6.282 -24.221,-9.678 -26.255,-13.404" style="fill:none;fill-rule:nonzero;stroke:black;stroke-width:1.03px;stroke-linecap:round;"/>
        </g>
        <g transform="matrix(-0.150065,0.988676,0.988676,0.150065,280.02,289.728)">
            <path d="M-10.154,-8.73C-4.289,-9.326 1.638,-9.327 7.504,-8.73" style="fill:none;fill-rule:nonzero;stroke:black;stroke-width:1.03px;"/>
        </g>
        <g transform="matrix(-0.162582,0.986695,0.986695,0.162582,289.908,285.704)">
            <path d="M-6.894,-6.39C-2.878,-5.174 1.497,-5.174 5.512,-6.39" style="fill:none;fill-rule:nonzero;stroke:black;stroke-width:1.03px;stroke-linecap:round;"/>
        </g>
        <g transform="matrix(-0.787113,0.616809,0.616809,0.787113,284.828,300.028)">
            <path d="M-7.02,-2.423C-4.433,-1.929 -1.751,-1.929 0.836,-2.423" style="fill:none;fill-rule:nonzero;stroke:black;stroke-width:1.03px;stroke-linecap:round;"/>
        </g>
        <g transform="matrix(0.827274,-0.561799,-0.561799,-0.827274,300.629,277.843)">
            <path d="M-3.698,12.029C10.077,16.632 25.348,16.632 39.123,12.029" style="fill:none;fill-rule:nonzero;stroke:black;stroke-width:1.03px;"/>
        </g>
        <g transform="matrix(0.946453,-0.32284,-0.32284,-0.946453,296.667,277.846)">
            <path d="M-1.228,7.403C13.557,12.182 29.846,12.182 44.631,7.403" style="fill:none;fill-rule:nonzero;stroke:black;stroke-width:1.03px;"/>
        </g>
        <g transform="matrix(1,0,0,1,294.268,265.491)">
            <path d="M0,7.019C2.249,6.513 4.348,5.512 6.482,4.641C14.227,1.48 22.654,0 31.013,0.331" style="fill:none;fill-rule:nonzero;stroke:black;stroke-width:1.03px;"/>
        </g>
        <g transform="matrix(1,0,0,1,273.892,245.201)">
            <path d="M0,27.373C-15.265,20.398 -31.081,14.711 -46.875,9.032C-57.678,5.148 -68.608,1.234 -80.022,0" style="fill:none;fill-rule:nonzero;stroke:black;stroke-width:1.03px;stroke-linecap:round;"/>
        </g>
        <g transform="matrix(-0.981218,-0.1929,-0.1929,0.981218,188.495,248.742)">
            <path d="M-88.3,8.626C-58.967,2.829 -28.5,2.829 0.834,8.626" style="fill:none;fill-rule:nonzero;stroke:black;stroke-width:1.03px;"/>
        </g>
        <g transform="matrix(1,0,0,1,272.54,278.57)">
            <path d="M0,-3.865C-7.449,-2.343 -15.142,-2.977 -22.742,-3.191C-30.342,-3.406 -38.198,-3.142 -45.122,0" style="fill:none;fill-rule:nonzero;stroke:black;stroke-width:1.03px;"/>
        </g>
        <g transform="matrix(1,0,0,1,273.492,268.566)">
            <path d="M0,6.276C-10.999,5.165 -21.714,2.006 -32.714,0.894C-41.568,0 -50.496,0.443 -59.384,0.887C-66.172,1.226 -72.998,1.571 -79.633,3.043" style="fill:none;fill-rule:nonzero;stroke:black;stroke-width:1.03px;"/>
        </g>
        <g transform="matrix(1,0,0,1,270.725,258.309)">
            <path d="M0,2.628C0.463,1.296 1.741,0.286 3.144,0.143C4.547,0 6.002,0.731 6.725,1.942" style="fill:none;fill-rule:nonzero;stroke:black;stroke-width:1.03px;stroke-linecap:round;"/>
        </g>
        <g transform="matrix(1,0,0,1,271.401,260.18)">
            <path d="M0,3.234C0.561,2.656 2.397,0.912 5.366,0.489C8.809,0 11.345,1.633 11.938,2.037" style="fill:none;fill-rule:nonzero;stroke:black;stroke-width:1.03px;stroke-linecap:round;"/>
        </g>
        <g transform="matrix(0.157743,-0.98748,-0.98748,-0.157743,247.816,221.076)">
            <path d="M-10.392,9.626C-3.661,13.325 4.962,13.324 11.694,9.626" style="fill:none;fill-rule:nonzero;stroke:black;stroke-width:1.03px;stroke-linecap:round;"/>
        </g>
        <g transform="matrix(1,0,0,1,236.771,80.1922)">
            <path d="M0,126.335C-0.825,123.173 -1.786,118.443 -1.901,112.668C-2.126,101.488 0.954,93.201 4.889,82.921C7.383,76.404 11.24,67.66 17.179,57.862C21.132,52.157 25.112,45.945 29.007,39.212C37.048,25.311 43.091,12.011 47.674,0C48.11,9.046 47.887,22.023 44.608,37.195C42.621,46.385 40.207,53.174 38.733,57.271C37.646,60.293 31.448,77.266 20.786,94.009C18.376,97.793 16.494,100.378 13.254,105.979C10.313,111.063 8.967,113.939 5.857,118.55C3.562,121.952 1.454,124.598 0,126.335Z" style="fill:rgb(251,208,202);fill-rule:nonzero;stroke:black;stroke-width:1.03px;"/>
        </g>
        <g transform="matrix(1,0,0,1,261.277,125.259)">
            <path d="M0,73.173C3.292,68.343 6.466,64.449 9.094,61.479C13.417,56.591 17.156,53.19 19.871,50.735C22.888,48.008 25.563,45.798 27.637,44.151C35.683,37.76 43.948,30.237 52.776,22.132C65.739,10.229 79.489,-3.461 82.639,-10.609C81.065,-4.046 78.709,3.523 75.118,11.622C68.993,25.433 61.42,35.946 55.104,43.337C47.645,50.27 38.512,57.837 27.581,65.247C17.771,71.897 8.406,77.137 0,81.269C0,81.269 -10.624,83.782 0,73.173Z" style="fill:rgb(251,208,202);fill-rule:nonzero;stroke:black;stroke-width:1.03px;"/>
        </g>
        <g transform="matrix(1,0,0,1,251.701,207.091)">
            <path d="M0,6.184C-1.107,4.774 -2.646,3.089 -4.71,1.457C-6.255,0.234 -7.746,-0.682 -9.042,-1.367C-7.292,-2.935 -5.07,-4.691 -2.344,-6.375C0.03,-7.842 2.534,-9.099 5.131,-10.124C4.398,-8.672 3.665,-7.22 2.932,-5.768C4.241,-6.348 6.27,-7.058 8.834,-7.228C10.729,-7.354 12.34,-7.146 13.532,-6.897C11.859,-5.951 10.132,-4.922 8.364,-3.803C6.677,-2.736 5.08,-1.667 3.571,-0.61C4.683,-0.588 6.089,-0.454 7.663,-0.043C9.813,0.519 11.48,1.391 12.616,2.107C9.238,2.993 5.859,3.88 2.48,4.767C5.253,5.428 9.299,6.739 13.58,9.491C17.159,11.792 19.713,14.335 21.406,16.308" style="fill:rgb(148,143,145);fill-rule:nonzero;stroke:black;stroke-width:1.03px;stroke-linecap:round;"/>
        </g>
        <g transform="matrix(1,0,0,1,269.297,406.102)">
            <path d="M0,-88.416C2.386,-88.022 5.207,-87.304 8.211,-85.986C16.494,-82.348 21.304,-76.273 23.548,-72.935C23.548,-72.935 44.096,-45.007 49.92,-35.879L54.077,-31.678C54.231,-31.477 54.956,-30.562 55.706,-30.698C56.048,-30.761 56.361,-31.037 57.037,-32.508C57.372,-33.24 57.797,-34.264 58.185,-35.545C58.497,-36.316 59.447,-38.659 59.765,-39.442C61.547,-43.832 62.45,-46.049 62.686,-46.632C63.749,-49.257 65.299,-53.345 67.333,-59.581C67.544,-60.928 67.743,-62.304 67.929,-63.708C68.158,-65.442 68.357,-67.141 68.528,-68.801C68.951,-67.737 69.875,-65.83 71.781,-64.097C74.05,-62.035 76.478,-61.341 77.624,-61.091C78.73,-60.741 80.501,-60.33 82.687,-60.458C84.554,-60.568 86.053,-61.03 87.056,-61.429C86.914,-58.959 86.719,-55.981 86.449,-52.603C86.297,-50.687 86.128,-48.858 85.79,-45.2C85.033,-37.002 84.891,-36.067 84.659,-34.9C83.994,-31.56 83.145,-29.084 82.605,-27.528C81.194,-23.461 79.714,-20.572 78.458,-18.143C77.099,-15.515 75.216,-12.19 72.684,-8.495C71.741,-7.115 70.327,-5.346 68.302,-3.617C66.322,-1.926 64.398,-0.821 62.911,-0.107C61.177,0 58.641,-0.069 55.785,-0.984C50.354,-2.724 47.204,-6.422 45.991,-8.026C45.991,-8.026 45.5,-23.985 39.652,-37.344C37.839,-42.215 35.426,-47.669 32.184,-53.408C26.785,-62.965 20.755,-70.36 15.556,-75.806C14.271,-77.047 13.076,-77.965 12.15,-78.61C10.994,-79.416 8.971,-80.805 6.013,-81.802C4.56,-82.291 3.299,-82.545 2.389,-82.686C1.593,-84.596 0.796,-86.506 0,-88.416Z" style="fill:rgb(148,143,145);fill-rule:nonzero;stroke:black;stroke-width:1.55px;"/>
        </g>
        <g transform="matrix(-0.34962,0.936892,0.936892,0.34962,327.466,378.146)">
            <path d="M-3.946,-2.725C-2.088,-3.434 0.029,-3.434 1.886,-2.725" style="fill:none;fill-rule:nonzero;stroke:black;stroke-width:1.03px;stroke-linecap:round;"/>
        </g>
        <g transform="matrix(1,0,0,1,262.745,217.382)">
            <path d="M0,45.678C-4.931,43.572 -9.862,41.465 -14.793,39.359C-15.807,36.861 -16.797,34.187 -17.727,31.34C-19.285,26.569 -20.432,22.059 -21.281,17.911C-21.281,17.911 -21.725,14.569 -21.592,10.578C-21.525,8.576 -21.358,5.802 -20.242,2.489C-19.885,1.433 -19.518,0.581 -19.249,0C-18.48,0.07 -17.443,0.227 -16.263,0.597C-15.683,0.78 -13.818,1.406 -11.804,2.919C-9.941,4.32 -8.754,5.876 -8.047,6.985C-4.674,12.552 -2.931,17.521 -1.981,20.992C-1.127,24.113 -0.667,26.93 -0.416,28.884C0.084,32.788 0.116,35.909 0.137,39.037C0.156,41.765 0.079,44.046 0,45.678Z" style="fill:white;fill-rule:nonzero;stroke:black;stroke-width:1.03px;"/>
        </g>
        <g transform="matrix(1,0,0,1,257.054,248.471)">
            <path d="M0,11.686C0,11.686 0.707,1.729 -5.58,0C-5.58,0 -9.902,0.249 -6.602,9.044L0,11.686Z" style="fill-rule:nonzero;"/>
        </g>
        <g transform="matrix(0.948031,0.318178,0.318178,-0.948031,273.254,226.296)">
            <path d="M0.69,-0.388C0.288,0.259 -0.124,0.931 -0.22,1.687C-0.317,2.441 -0.008,3.305 0.69,3.61C1.168,3.82 1.739,3.727 2.197,3.476C2.656,3.224 3.019,2.831 3.348,2.424" style="fill:none;fill-rule:nonzero;stroke:black;stroke-width:1.03px;stroke-linecap:round;"/>
        </g>
        <g transform="matrix(1,0,0,1,282.072,231.209)">
            <path d="M0,21.974C0,21.974 -1.292,19.414 -2.339,15.373C-2.434,15.007 -3.499,10.861 -3.63,6.74C-3.66,5.798 -3.792,4.732 -3.585,3.359C-3.366,1.915 -2.928,0.768 -2.575,0C-2.163,0.105 -1.573,0.305 -0.964,0.713C-0.032,1.338 0.451,2.121 0.896,2.903C1.98,4.807 2.522,5.76 3.109,7.459C3.575,8.806 3.949,10.243 4.34,12.636C4.685,14.747 5.05,17.641 5.169,21.169C5.028,20.887 4.724,20.378 4.142,19.985C3.969,19.868 2.726,19.029 1.437,19.645C0.575,20.058 0.02,20.966 0,21.974Z" style="fill:white;fill-rule:nonzero;stroke:black;stroke-width:1.03px;stroke-linecap:round;"/>
        </g>
        <g transform="matrix(1,0,0,1,282.163,257.81)">
            <path d="M0,-4.011C0.043,-2.918 0.548,-2.268 1.939,-0.239C2.545,0.645 3.441,1.967 4.521,3.627C4.655,0.686 4.789,-2.254 4.923,-5.195C4.519,-6.803 2.836,-7.638 1.513,-7.141C0.302,-6.686 -0.039,-5.008 0,-4.011" style="fill-rule:nonzero;"/>
        </g>
        <g transform="matrix(1,0,0,1,330.708,304.507)">
            <path d="M0,-6.008C-9.037,-11.28 -27.086,-22.315 -25.391,-26.722C-25.052,-27.603 -23.797,-28.547 -19.616,-28.658C-18.128,-28.718 -15.896,-28.739 -13.198,-28.485C-11.21,-28.298 -10.688,-28.123 -8.272,-27.766C-5.589,-27.369 -5.288,-27.315 3.215,-26.643C5.062,-26.497 6.984,-26.303 8.974,-26.052C11.215,-25.768 13.356,-25.435 15.39,-25.067C20.293,-24.088 25.488,-22.869 30.92,-21.347C38.465,-19.233 45.348,-16.849 51.531,-14.403C51.531,-14.403 65.858,-8.141 58.975,7.152C58.975,7.152 55.997,15.371 52.57,15.537C52.57,15.537 42.499,22.731 21.877,5.466C17.283,3.358 10.785,0.194 3.255,-4.128C1.564,-5.098 0.181,-5.72 -0.778,-7.461C-1.838,-9.386 -2.251,-11.643 -1.835,-13.811" style="fill:rgb(234,152,0);fill-rule:nonzero;stroke:black;stroke-width:1.03px;"/>
        </g>
        <g transform="matrix(-0.797786,0.602941,0.602941,0.797786,331.664,282.464)">
            <path d="M-5.324,-1.785C-3.365,-2.095 -1.359,-2.094 0.599,-1.786" style="fill:none;fill-rule:nonzero;stroke:black;stroke-width:1.03px;stroke-linecap:round;"/>
        </g>
        <g transform="matrix(-0.222849,-0.974853,-0.974853,0.222849,339.456,294.167)">
            <path d="M-4.56,3.057C-2.447,4.148 0.193,4.149 2.305,3.057" style="fill:none;fill-rule:nonzero;stroke:black;stroke-width:1.03px;stroke-linecap:round;"/>
        </g>
        <g transform="matrix(-0.428813,-0.903393,-0.903393,0.428813,366.837,311.822)">
            <path d="M-5.895,3.695C-3.349,4.943 -0.226,4.943 2.321,3.695" style="fill:none;fill-rule:nonzero;stroke:black;stroke-width:1.03px;stroke-linecap:round;"/>
        </g>
        <g transform="matrix(0.278817,0.960344,0.960344,-0.278817,333.318,292.732)">
            <path d="M-3.151,-3.788C-0.553,-4.984 2.566,-4.985 5.163,-3.788" style="fill:none;fill-rule:nonzero;stroke:black;stroke-width:1.03px;stroke-linecap:round;"/>
        </g>
        <g transform="matrix(1,0,0,1,382.753,376.647)">
            <path d="M0,-56.814C0,-56.814 -3.043,-41.105 -1.969,-40.099C-1.969,-40.099 -19.946,-37.43 -23.806,-26.588L-23.806,-15.719C-23.806,-15.719 -24.177,-8.026 -26.4,-7.233C-26.4,-7.233 -36.156,0.89 -24.164,7.657C-24.164,7.657 -14.14,8.152 -12.708,4.397C-12.708,4.397 -5.191,4.58 -4.117,3.506C-4.117,3.506 5.728,-3.295 7.339,-7.054C7.339,-7.054 7.876,-14.36 11.456,-15.719C11.456,-15.719 13.961,-23.108 9.666,-24.568C9.666,-24.568 11.185,-32.579 5.594,-38.297C5.594,-38.297 9.533,-59.136 7.627,-62.694L6.36,-64.966L0,-56.814Z" style="fill:rgb(2,137,38);fill-rule:nonzero;stroke:black;stroke-width:1.03px;stroke-linecap:round;"/>
        </g>
        <g transform="matrix(0.895896,-0.444263,-0.444263,-0.895896,359.334,371)">
            <path d="M-0.508,2.17C2.573,0.868 6.179,0.868 9.26,2.17" style="fill:none;fill-rule:nonzero;stroke:black;stroke-width:1.03px;stroke-linecap:round;"/>
        </g>
        <g transform="matrix(-0.586156,0.810198,0.810198,0.586156,387.207,363.727)">
            <path d="M-10.655,-5.443C-6.399,-3.722 -1.476,-3.723 2.78,-5.443" style="fill:none;fill-rule:nonzero;stroke:black;stroke-width:1.03px;stroke-linecap:round;"/>
        </g>
        <g transform="matrix(0.937904,-0.346894,-0.346894,-0.937904,361.397,355.27)">
            <path d="M-0.482,2.69C4.521,1.087 10.025,1.087 15.028,2.69" style="fill:none;fill-rule:nonzero;stroke:black;stroke-width:1.03px;stroke-linecap:round;"/>
        </g>
        <g transform="matrix(0.504653,-0.863322,-0.863322,-0.504653,374.208,380.572)">
            <path d="M-1.968,3.43C0.524,2.321 3.486,2.322 5.978,3.43" style="fill:none;fill-rule:nonzero;stroke:black;stroke-width:1.03px;stroke-linecap:round;"/>
        </g>
        <g transform="matrix(1,0,0,1,380.856,340.973)">
            <path d="M0,-5.257C-0.465,-3.096 -2.034,-1.206 -3.886,0C-0.563,-1.784 3.313,-2.52 7.06,-2.08" style="fill:none;fill-rule:nonzero;stroke:black;stroke-width:1.03px;stroke-linecap:round;"/>
        </g>
        <g transform="matrix(1,0,0,1,335.921,291.694)">
            <path d="M0,-14.247C2.897,-18.52 5.857,-21.559 8.097,-23.58C12.708,-27.741 15.024,-28.267 16.731,-28.243C18.295,-28.22 19.576,-27.731 20.432,-27.303C20.432,-27.303 24.098,-26.232 23.291,-18.482L32.01,-19.184C32.01,-19.184 35.724,-19.289 37.016,-15.252C37.016,-15.252 38.792,-19.128 43.475,-18.482C46.006,-18.298 48.537,-18.115 51.068,-17.931C52.438,-19.122 54.585,-20.718 57.535,-21.96C60.51,-23.213 63.173,-23.632 64.989,-23.777C65.488,-23.63 70.972,-21.951 71.356,-18.648C71.486,-17.53 71.015,-16.386 70.207,-14.426C69.544,-12.819 68.822,-11.566 68.289,-10.727C67.674,-9.918 66.651,-8.785 65.101,-7.838C62.524,-6.265 60,-6.126 58.837,-6.138C55.331,-6 51.825,-5.863 48.319,-5.725C47.642,-5.588 46.806,-5.351 45.902,-4.929C44.54,-4.294 43.56,-3.491 42.927,-2.879C42.433,-2.974 41.808,-3.043 41.09,-2.996C39.599,-2.899 38.468,-2.355 37.833,-1.981C37.833,-1.981 42.164,4.738 39.537,9.554C39.537,9.554 37.425,12.882 35.022,13.495C35.022,13.495 27.54,14.02 25.876,12.269C26.72,11.152 27.69,9.504 28.145,7.357C28.362,6.332 28.889,3.838 27.879,0.978C27.47,-0.18 26.929,-1.06 26.517,-1.64C26.142,-2.168 25.592,-2.791 24.808,-3.327C22.391,-4.978 19.651,-4.497 18.938,-4.349C18.938,-4.349 16.303,-1.447 15.235,-2.03C15.235,-2.03 9.408,-4.59 10.208,-13.733C9.611,-13.483 8.716,-13.178 7.598,-13.067C6.947,-13.002 6.167,-12.998 3.942,-13.394C2.915,-13.577 1.571,-13.847 0,-14.247Z" style="fill:white;fill-rule:nonzero;stroke:black;stroke-width:1.03px;"/>
        </g>
        <g transform="matrix(1,0,0,1,366.366,309.159)">
            <path d="M0,8.527C0.497,10.34 1.08,13.11 1.098,16.526C1.114,19.475 1.125,21.678 -0.044,24.038C-1.737,27.457 -4.885,29.141 -6.62,29.876C-6.62,29.876 -14.064,31.179 -20.166,29.081C-20.166,29.081 -26.647,26.726 -27.227,21.887C-27.522,20.722 -28.032,18.933 -28.885,16.83C-30.184,13.626 -31.239,12.256 -32.796,8.92C-33.444,7.533 -34.33,5.479 -35.193,2.862C-35.697,1.357 -35.765,0.082 -35.745,-0.737C-35.721,-1.673 -35.653,-4.459 -33.608,-6.669C-32.836,-7.505 -32.016,-8.003 -31.453,-8.29C-31.073,-8.454 -30.487,-8.703 -29.768,-8.991C-26.487,-10.303 -24.021,-10.99 -23.435,-11.17C-21.475,-11.77 -18.605,-13.408 -14.754,-18.079C-14.654,-18.418 -13.925,-20.757 -11.508,-21.814C-9.589,-22.652 -7.842,-22.145 -7.391,-21.999C-6.677,-21.594 -3.362,-19.613 -2.166,-15.44C-0.663,-10.196 -3.795,-5.996 -4.144,-5.543C-5.63,-3.584 -7.128,-2.543 -8.245,-1.951C-9.566,-1.25 -10.871,-0.905 -12.85,0.409C-13.616,0.918 -14.21,1.391 -14.596,1.715C-12.865,2.881 -10.835,4.098 -8.502,5.244C-5.399,6.769 -2.498,7.807 0,8.527Z" style="fill:white;fill-rule:nonzero;stroke:black;stroke-width:1.03px;"/>
        </g>
        <g transform="matrix(1,0,0,1,358.726,295.76)">
            <path d="M0,-28.575C0.223,-27.859 0.465,-26.772 0.343,-25.475C0.247,-24.462 -0.008,-23.99 -0.164,-23.166C-0.164,-23.166 -0.538,-21.191 0.319,-18.88C1.078,-16.836 2.078,-16.015 6.43,-13.569C8.832,-12.22 11.381,-10.394 11.785,-7.669C12.127,-5.365 10.56,-3.368 10.145,-2.836C8.564,-0.806 6.46,-0.178 5.756,0" style="fill:none;fill-rule:nonzero;stroke:black;stroke-width:1.03px;stroke-linecap:round;"/>
        </g>
        <g transform="matrix(1,0,0,1,374.855,289.158)">
            <path d="M0,-14.713C-0.573,-14.336 -1.353,-13.706 -1.918,-12.716C-2.753,-11.252 -2.67,-9.791 -2.319,-6.74C-2.05,-4.404 -1.742,-2.157 -1.405,0" style="fill:none;fill-rule:nonzero;stroke:black;stroke-width:1.03px;stroke-linecap:round;"/>
        </g>
        <g transform="matrix(1,0,0,1,344.258,317.027)">
            <path d="M0,-1.661C1.946,-3.299 3.605,-4.431 4.796,-5.177C5.685,-5.733 6.82,-6.391 7.776,-5.988C7.965,-5.908 8.103,-5.805 8.502,-5.428C9.149,-4.816 10.046,-3.894 10.472,-3.318C11.304,-2.191 12.611,0.697 13.143,4.73" style="fill:none;fill-rule:nonzero;stroke:black;stroke-width:1.03px;stroke-linecap:round;"/>
        </g>
        <g transform="matrix(1,0,0,1,360.428,339.649)">
            <path d="M0,-0.922C0,-0.922 2.36,3.997 -5.286,5.441C-5.286,5.441 -12.333,8.237 -20.055,1.662C-20.055,1.662 -22.777,-0.929 -22.777,-2.726L-22.286,-7.961L-21.435,-9.159C-21.435,-9.159 -20.338,-0.475 -7.177,-0.233C-7.177,-0.233 -1.293,0.098 0,-0.922Z" style="fill:white;fill-rule:nonzero;stroke:black;stroke-width:1.03px;"/>
        </g>
        <g transform="matrix(0.864213,-0.503126,0.503126,0.864213,0,0)">
            <text x="-133.992px" y="486.132px" style="font-family:'UniversLTStd-Bold', 'Univers LT Std', sans-serif;font-weight:700;font-size:51.424px;fill:rgb(50,1,155);">S</text>
        </g>
        <g transform="matrix(1,0,0,1,124.366,453.427)">
            <path d="M0,22.938C1.855,26.022 6.55,33.881 18.86,26.715C27.749,21.541 29.832,14.081 26.468,8.302C22.82,2.037 16.474,3.709 10.143,5.609C4.848,7.144 2.182,7.982 0.449,5.003C-1.078,2.382 0.002,-0.567 3.202,-2.429C7.957,-5.198 10.512,-1.627 11.248,-0.568L17.869,-4.423C17.248,-5.491 15.747,-8.068 12.581,-9.318C8.421,-10.943 4.025,-9.395 0.693,-7.455C-8.24,-2.255 -9.301,4.612 -6.222,9.899C-2.988,15.455 2.509,15.289 11.266,12.75C15.924,11.348 18.208,10.672 19.864,13.516C21.442,16.227 20.122,19.376 16.388,21.55C10.478,24.991 7.901,20.361 7.021,18.85L0,22.938Z" style="fill:none;fill-rule:nonzero;stroke:black;stroke-width:1.03px;stroke-linecap:round;stroke-linejoin:round;"/>
        </g>
        <g transform="matrix(0.914027,-0.405654,0.405654,0.914027,0,0)">
            <text x="-48.084px" y="494.162px" style="font-family:'UniversLTStd-Bold', 'Univers LT Std', sans-serif;font-weight:700;font-size:51.424px;fill:rgb(50,1,155);">H</text>
        </g>
        <g transform="matrix(1,0,0,1,159.658,423.599)">
            <path d="M0,46.187L7.286,42.953L0.672,28.053L13.598,22.317L20.211,37.216L27.497,33.984L12.415,0L5.035,3.276L11.064,16.86L-1.768,22.554L-7.796,8.97L-15.083,12.204L0,46.187Z" style="fill:none;fill-rule:nonzero;stroke:black;stroke-width:1.03px;stroke-linecap:round;stroke-linejoin:round;"/>
        </g>
        <g transform="matrix(0.95529,-0.295671,0.295671,0.95529,0,0)">
            <text x="44.566px" y="492.094px" style="font-family:'UniversLTStd-Bold', 'Univers LT Std', sans-serif;font-weight:700;font-size:51.424px;fill:rgb(50,1,155);">O</text>
        </g>
        <g transform="matrix(1,0,0,1,184.797,427.177)">
            <path d="M0,11.857C1.003,15.1 3.319,20.843 8.478,23.768C12.77,26.155 17.892,26.185 22.559,24.74C25.507,23.827 31.057,21.41 33.618,15.772C35.513,11.633 35.382,5.644 33.785,0.485C32.706,-3.001 30.251,-8.325 25.13,-11.477C20.426,-14.328 14.945,-13.6 11.163,-12.43C-1.61,-8.475 -2.919,2.425 0,11.857ZM7.882,9.149C6.635,5.122 6.04,1.107 7.293,-1.973C8.156,-4.231 10.05,-6.111 12.9,-6.992C16.535,-8.118 20.124,-7.128 22.951,-3.212C24.357,-1.279 25.265,1.131 25.797,2.851C27.545,8.501 27.169,11.631 26.537,13.765C25.797,16.416 24.019,18.152 20.924,19.109C17.387,20.205 15.144,19.391 13.606,18.252C10.643,16.155 8.932,12.54 7.882,9.149Z" style="fill:none;fill-rule:nonzero;stroke:black;stroke-width:1.03px;stroke-linecap:round;stroke-linejoin:round;"/>
        </g>
        <g transform="matrix(0.981499,-0.191467,0.191467,0.981499,0,0)">
            <text x="134.859px" y="480.588px" style="font-family:'UniversLTStd-Bold', 'Univers LT Std', sans-serif;font-weight:700;font-size:51.424px;fill:rgb(50,1,155);">L</text>
        </g>
        <g transform="matrix(0.996594,-0.0824593,0.0824593,0.996594,0,0)">
            <text x="216.311px" y="459.501px" style="font-family:'UniversLTStd-Bold', 'Univers LT Std', sans-serif;font-weight:700;font-size:51.424px;fill:rgb(50,1,155);">K</text>
        </g>
        <g transform="matrix(0.998746,0.0500718,-0.0500718,0.998746,0,0)">
            <text x="312.687px" y="421.998px" style="font-family:'UniversLTStd-Bold', 'Univers LT Std', sans-serif;font-weight:700;font-size:51.424px;fill:rgb(50,1,155);">Ä</text>
        </g>
        <g transform="matrix(0.986456,0.164028,-0.164028,0.986456,0,0)">
            <text x="396.832px" y="379.382px" style="font-family:'UniversLTStd-Bold', 'Univers LT Std', sans-serif;font-weight:700;font-size:51.424px;fill:rgb(50,1,155);">L</text>
        </g>
        <g transform="matrix(0.965135,0.261751,-0.261751,0.965135,0,0)">
            <text x="462.317px" y="334.933px" style="font-family:'UniversLTStd-Bold', 'Univers LT Std', sans-serif;font-weight:700;font-size:51.424px;fill:rgb(50,1,155);">L</text>
        </g>
        <g transform="matrix(0.929781,0.368113,-0.368113,0.929781,0,0)">
            <text x="526.326px" y="277.601px" style="font-family:'UniversLTStd-Bold', 'Univers LT Std', sans-serif;font-weight:700;font-size:51.424px;fill:rgb(50,1,155);">A</text>
        </g>
        <g transform="matrix(0.874703,0.48466,-0.48466,0.874703,0,0)">
            <text x="595.37px" y="202.663px" style="font-family:'UniversLTStd-Bold', 'Univers LT Std', sans-serif;font-weight:700;font-size:51.424px;fill:rgb(50,1,155);">N</text>
        </g>
        <g transform="matrix(1,0,0,1,227.863,407.2)">
            <path d="M0,37.997L23.621,33.389L22.41,27.182L6.763,30.233L0.865,0L-7.109,1.556L0,37.997Z" style="fill:none;fill-rule:nonzero;stroke:black;stroke-width:1.03px;stroke-linecap:round;stroke-linejoin:round;"/>
        </g>
        <g transform="matrix(1,0,0,1,256.899,400.311)">
            <path d="M0,39.506L7.943,38.848L6.382,19.988L20.91,37.774L30.8,36.955L14.349,17.73L26.556,0L17.28,0.768L6.205,17.835L4.886,1.898L-3.057,2.555L0,39.506Z" style="fill:none;fill-rule:nonzero;stroke:black;stroke-width:1.03px;stroke-linecap:round;stroke-linejoin:round;"/>
        </g>
        <g transform="matrix(1,0,0,1,306.687,429.982)">
            <path d="M0,-29.304L-15.266,7.156L-7.665,7.538L-4.49,-0.335L10.199,0.401L12.469,8.547L20.48,8.948L9.451,-28.831L0,-29.304ZM-2.134,-6.242L4.154,-21.784L8.498,-5.708L-2.134,-6.242ZM6.713,-31.748L11.952,-31.486L12.256,-37.546L7.018,-37.809L6.713,-31.748ZM-2.12,-32.192L3.118,-31.929L3.422,-37.99L-1.816,-38.252L-2.12,-32.192Z" style="fill:none;fill-rule:nonzero;stroke:black;stroke-width:1.03px;stroke-linecap:round;stroke-linejoin:round;"/>
        </g>
        <g transform="matrix(1,0,0,1,332.727,407.24)">
            <path d="M0,32.676L23.741,36.624L24.779,30.384L9.053,27.77L14.105,-2.616L6.091,-3.948L0,32.676Z" style="fill:none;fill-rule:nonzero;stroke:black;stroke-width:1.03px;stroke-linecap:round;stroke-linejoin:round;"/>
        </g>
        <g transform="matrix(1,0,0,1,361.955,415.662)">
            <path d="M0,29.535L23.228,35.835L24.883,29.729L9.497,25.556L17.561,-4.172L9.719,-6.3L0,29.535Z" style="fill:none;fill-rule:nonzero;stroke:black;stroke-width:1.03px;stroke-linecap:round;stroke-linejoin:round;"/>
        </g>
        <g transform="matrix(1,0,0,1,413.584,465.127)">
            <path d="M0,-42.804L-26.166,-13.176L-19.09,-10.374L-13.555,-16.811L0.12,-11.398L-0.347,-2.953L7.112,0L8.798,-39.321L0,-42.804ZM-9.427,-21.649L1.519,-34.348L0.47,-17.73L-9.427,-21.649Z" style="fill:none;fill-rule:nonzero;stroke:black;stroke-width:1.03px;stroke-linecap:round;stroke-linejoin:round;"/>
        </g>
        <g transform="matrix(1,0,0,1,425.788,451.021)">
            <path d="M0,16.596L6.567,20.235L21.521,-6.755L19.162,27.212L28.743,32.521L46.763,-0.001L40.285,-3.589L26.104,22.005L28.095,-10.342L18.02,-15.925L0,16.596Z" style="fill:none;fill-rule:nonzero;stroke:black;stroke-width:1.03px;stroke-linecap:round;stroke-linejoin:round;"/>
        </g>
    </g>
</svg>
